<svg width="2048" height="500" viewBox="0 0 2048 500" fill="none" xmlns="http://www.w3.org/2000/svg" role="img" aria-labelledby="title">
  <title id="title">DTCC</title>
  <g fill="#0C5A48">
    <path d="M0 0h342c106 0 164 58 164 164v172c0 106-58 164-164 164H0V0Zm153 136v228h142c38 0 58-20 58-58V194c0-38-20-58-58-58H153Z"/>
    <path d="M562 0h471v136H877v364H717V136H562V0Z"/>
    <path d="M1087 164C1087 58 1145 0 1251 0h283v137h-236c-38 0-58 20-58 58v110c0 38 20 58 58 58h236v137h-283c-106 0-164-58-164-164V164Z"/>
    <path d="M1603 164C1603 58 1661 0 1767 0h281v137h-234c-38 0-58 20-58 58v110c0 38 20 58 58 58h234v137h-281c-106 0-164-58-164-164V164Z"/>
  </g>
</svg>
